# xmcd CD database file
#
# Track frame offsets:
#	150
#	15788
#	33617
#	52643
#	67924
#	81042
#	98062
#	114737
#	131457
#	148983
#	162327
#	180490
#	199602
#	212955
#
# Disc length: 3049 seconds
#
# Revision: 0
# Processed by: cddbd v1.5.2PL0 Copyright (c) Steve Scherf et al.
# Submitted via: jetAudio 7
#
DISCID=b50be70e
DTITLE=Tony e Max - Tony e Max
DYEAR=1900
DGENRE=Sertaneja
TTITLE0=Pare e Pense
TTITLE1=Tudo Outra Vez
TTITLE2=Chuva de Verao
TTITLE3=Isso é Paixão
TTITLE4=Festa Na Serra
TTITLE5=Pedacinho de Ceu
TTITLE6=Qual é o Misterio
TTITLE7=Ainda ha Tempo
TTITLE8=Seu Cheiro No Ar
TTITLE9=Como Amo Voce
TTITLE10=Caminheiro
TTITLE11=So Busco Minha Paz
TTITLE12=A Noite e So Alegria
TTITLE13=Sou Caipira
EXTD=
EXTT0=
EXTT1=
EXTT2=
EXTT3=
EXTT4=
EXTT5=
EXTT6=
EXTT7=
EXTT8=
EXTT9=
EXTT10=
EXTT11=
EXTT12=
EXTT13=
PLAYORDER=
